<?xml version="1.0" encoding="utf-8"?>
<!-- Generator: Adobe Illustrator 25.4.1, SVG Export Plug-In . SVG Version: 6.00 Build 0)  -->
<svg version="1.1" id="Layer_1" xmlns="http://www.w3.org/2000/svg" xmlns:xlink="http://www.w3.org/1999/xlink" x="0px" y="0px"
	 viewBox="0 0 1010 770.6" style="enable-background:new 0 0 1010 770.6;" xml:space="preserve">
<style type="text/css">
	.st0{fill:#FF6584;}
	.st1{fill:#F2F2F2;}
	.st2{fill:#3F3D56;}
	.st3{fill:#E6E6E6;}
	.st4{fill:#CCCCCC;}
	.st5{fill:#5831E4;}
	.st6{fill:#5831E4;stroke:#001A41;stroke-miterlimit:10;}
	.st7{fill:#FFFFFF;}
</style>
<circle class="st0" cx="144.3" cy="391" r="64"/>
<path class="st1" d="M275.3,752.5L275.3,752.5c-4.8,0-8.6-3.8-8.6-8.5V245c0-4.7,3.8-8.5,8.5-8.5h420c4.7,0,8.5,3.8,8.5,8.5v388
	c0,4.7-3.8,8.5-8.4,8.5L275.3,752.5z"/>
<path class="st2" d="M585.8,166h-195V53c0-5,4-9,9-9h177c5,0,9,4,9,9V166z M392.8,164h191V53c0-3.9-3.1-7-7-7h-177c-3.9,0-7,3.1-7,7
	V164z"/>
<path class="st3" d="M446.3,87h84c4.4,0,8,3.6,8,8v120l0,0h-100l0,0V95C438.3,90.6,441.9,87,446.3,87L446.3,87z"/>
<path class="st2" d="M462.8,46h-41V5c0-2.8,2.2-5,5-5h31c2.8,0,5,2.2,5,5V46z M423.8,44h37V5c0-1.7-1.3-3-3-3h-31c-1.7,0-3,1.3-3,3
	V44z"/>
<path class="st2" d="M799.7,648.8c-0.4,0-0.8,0-1.2,0c-24.7-0.3-48.5-9.6-66.9-26.1c-0.7-0.6-1.4-1.2-2-1.9l-0.3-0.3V428.9l0.1-0.2
	c0.7-1.4,1.3-2.8,2-4.2c20.8-42.2,45.1-65.5,68.3-65.5c33.5,0,59.5,46,72,73.4c17.4,38.1,29.6,85.4,29.6,114.9
	c0,55.6-44.8,100.9-100.4,101.5C800.5,648.8,800.1,648.8,799.7,648.8z M731.3,619.7c0.6,0.5,1.1,1,1.7,1.5
	c18,16.2,41.3,25.4,65.6,25.6c0.4,0,0.8,0,1.2,0c0.4,0,0.7,0,1.1,0c54.3-0.6,98.5-45.3,98.5-99.5c0-29.3-12.1-76.2-29.4-114
	c-12.3-27-37.8-72.2-70.2-72.2c-22.4,0-46.1,22.9-66.5,64.4c-0.6,1.3-1.3,2.6-1.9,3.9V619.7z"/>
<path class="st4" d="M799.7,770.1c-0.6,0-1.2-0.5-1.2-1.2V534.1c0-0.6,0.5-1.2,1.1-1.2c0.6,0,1.2,0.5,1.2,1.1c0,0,0,0,0,0v234.9
	C800.8,769.6,800.3,770.1,799.7,770.1z"/>
<path class="st4" d="M202.7,770.1c-0.6,0-1.2-0.5-1.2-1.2V534.1c0-0.6,0.5-1.2,1.1-1.2s1.2,0.5,1.2,1.1c0,0,0,0,0,0v234.9
	C203.8,769.6,203.3,770.1,202.7,770.1z"/>
<path class="st4" d="M799.7,578c-0.3,0-0.7-0.1-0.9-0.4l-57.9-66.7c-0.4-0.5-0.4-1.2,0.1-1.6c0.5-0.4,1.2-0.4,1.6,0.1l57.9,66.7
	c0.4,0.5,0.4,1.2-0.1,1.6C800.2,577.9,800,578,799.7,578z"/>
<path class="st4" d="M799.7,616.5c-0.6,0-1.2-0.5-1.2-1.2c0-0.3,0.1-0.6,0.3-0.8l32.9-32.9c0.5-0.4,1.2-0.4,1.6,0
	c0.4,0.4,0.4,1.2,0,1.6l-32.9,32.9C800.3,616.3,800,616.5,799.7,616.5z"/>
<path class="st2" d="M906.1,770.6h-86v-1c0-23.7,19.2-43,43-43c23.7,0,43,19.2,43,43c0,0,0,0,0,0L906.1,770.6z M822.1,768.6h82
	c-0.6-22.6-19.4-40.5-42-40C840.3,729.1,822.7,746.7,822.1,768.6L822.1,768.6z"/>
<path class="st2" d="M863.1,745.2c-0.6,0-1.1,0.5-1.1,1.1v12.1l-11.7-10.1c-0.5-0.4-1.2-0.4-1.6,0.1c-0.4,0.5-0.4,1.2,0.1,1.6
	c0,0,0,0,0,0l13.2,11.4v7.1c0,0.6,0.5,1.1,1.1,1.1c0.6,0,1.1-0.5,1.1-1.1c0,0,0,0,0,0v-22.1C864.3,745.7,863.7,745.2,863.1,745.2z"
	/>
<path class="st2" d="M185.1,770.6h-86v-1c0-23.7,19.3-43,43-43c23.7,0,43,19.3,43,43L185.1,770.6z M101.1,768.6h82
	c-0.6-22.6-19.4-40.5-42-40C119.3,729.1,101.7,746.7,101.1,768.6L101.1,768.6z"/>
<path class="st2" d="M142.1,745.2c-0.6,0-1.1,0.5-1.1,1.1v12.1l-11.7-10.1c-0.5-0.4-1.2-0.4-1.6,0.1c-0.4,0.5-0.4,1.2,0.1,1.6
	c0,0,0,0,0,0l13.2,11.4v7.1c0,0.6,0.5,1.1,1.1,1.1s1.1-0.5,1.1-1.1c0,0,0,0,0,0v-22.1C143.3,745.7,142.7,745.2,142.1,745.2z"/>
<path class="st2" d="M203.7,648.8c-0.4,0-0.8,0-1.2,0c-55.6-0.6-100.4-45.9-100.4-101.5c0-29.5,12.2-76.8,29.6-114.9
	c12.5-27.4,38.5-73.4,72.1-73.4c13.8,0,27.7,7.9,41.3,23.4c0.7,0.8,1.4,1.6,2,2.4l0.2,0.3v254l-0.6,0.3c-0.7,0.3-1.4,0.6-2,0.9
	c-12.5,5.6-26.1,8.5-39.8,8.6C204.5,648.8,204.1,648.8,203.7,648.8z M203.7,361c-32.4,0-57.9,45.3-70.2,72.2
	c-17.3,37.9-29.4,84.8-29.4,114c0,54.3,44.2,98.9,98.5,99.5c0.4,0,0.8,0,1.2,0c0.4,0,0.7,0,1.1,0c13.5-0.1,26.8-3,39.1-8.4
	c0.5-0.2,0.9-0.4,1.4-0.6v-252c-0.6-0.7-1.2-1.4-1.8-2C230.3,368.6,216.9,361,203.7,361z"/>
<path class="st4" d="M203.7,578c-0.3,0-0.7-0.1-0.9-0.4l-57.9-66.7c-0.4-0.5-0.4-1.2,0.1-1.6c0.5-0.4,1.2-0.4,1.6,0.1l57.9,66.7
	c0.4,0.5,0.4,1.2-0.1,1.6C204.2,577.9,204,578,203.7,578z"/>
<path class="st4" d="M203.7,616.5c-0.6,0-1.2-0.5-1.2-1.2c0-0.3,0.1-0.6,0.3-0.8l32.9-32.9c0.5-0.4,1.2-0.4,1.6,0
	c0.4,0.4,0.4,1.2,0,1.6l-32.9,32.9C204.3,616.3,204,616.5,203.7,616.5z"/>
<path class="st2" d="M294,174l0.7,1.5c0.3,0.6,0.5,1.3,0.5,2V217h35v-39.5c0-0.7,0.2-1.4,0.5-2l0.7-1.5H294z M328.3,177.5V215h-31
	v-37.5c0-0.5-0.1-1-0.2-1.5h31.4C328.3,176.5,328.3,177,328.3,177.5L328.3,177.5z M338,174l0.7,1.5c0.3,0.6,0.5,1.3,0.5,2V217h35
	v-39.5c0-0.7,0.2-1.4,0.5-2l0.7-1.5H338z M372.3,177.5V215h-31v-37.5c0-0.5-0.1-1-0.2-1.5h31.4C372.3,176.5,372.3,177,372.3,177.5
	L372.3,177.5z M382,174l0.7,1.5c0.3,0.6,0.5,1.3,0.5,2V217h35v-39.5c0-0.7,0.2-1.4,0.5-2l0.7-1.5H382z M416.3,177.5V215h-31v-37.5
	c0-0.5-0.1-1-0.2-1.5h31.4C416.3,176.5,416.3,177,416.3,177.5L416.3,177.5z M426,174l0.7,1.5c0.3,0.6,0.5,1.3,0.5,2V217h35v-39.5
	c0-0.7,0.2-1.4,0.5-2l0.7-1.5H426z M460.3,177.5V215h-31v-37.5c0-0.5-0.1-1-0.2-1.5h31.4C460.3,176.5,460.3,177,460.3,177.5z
	 M470,174l0.7,1.5c0.3,0.6,0.5,1.3,0.5,2V217h35v-39.5c0-0.7,0.2-1.4,0.5-2l0.7-1.5H470z M504.3,177.5V215h-31v-37.5
	c0-0.5-0.1-1-0.2-1.5h31.4C504.3,176.5,504.3,177,504.3,177.5z M514,174l0.7,1.5c0.3,0.6,0.5,1.3,0.5,2V217h35v-39.5
	c0-0.7,0.2-1.4,0.5-2l0.7-1.5H514z M548.3,177.5V215h-31v-37.5c0-0.5-0.1-1-0.2-1.5h31.4C548.3,176.5,548.3,177,548.3,177.5z
	 M558,174l0.7,1.5c0.3,0.6,0.5,1.3,0.5,2V217h35v-39.5c0-0.7,0.2-1.4,0.5-2l0.7-1.5H558z M592.3,177.5V215h-31v-37.5
	c0-0.5-0.1-1-0.2-1.5h31.4C592.3,176.5,592.3,177,592.3,177.5z M602,174l0.7,1.5c0.3,0.6,0.5,1.3,0.5,2V217h35v-39.5
	c0-0.7,0.2-1.4,0.5-2l0.7-1.5H602z M636.3,177.5V215h-31v-37.5c0-0.5-0.1-1-0.2-1.5h31.4C636.3,176.5,636.3,177,636.3,177.5z
	 M646,174l0.7,1.5c0.3,0.6,0.5,1.3,0.5,2V217h35v-39.5c0-0.7,0.2-1.4,0.5-2l0.7-1.5H646z M680.3,177.5V215h-31v-37.5
	c0-0.5-0.1-1-0.2-1.5h31.4C680.3,176.5,680.3,177,680.3,177.5z M646,174l0.7,1.5c0.3,0.6,0.5,1.3,0.5,2V217h35v-39.5
	c0-0.7,0.2-1.4,0.5-2l0.7-1.5H646z M680.3,177.5V215h-31v-37.5c0-0.5-0.1-1-0.2-1.5h31.4C680.3,176.5,680.3,177,680.3,177.5z
	 M602,174l0.7,1.5c0.3,0.6,0.5,1.3,0.5,2V217h35v-39.5c0-0.7,0.2-1.4,0.5-2l0.7-1.5H602z M636.3,177.5V215h-31v-37.5
	c0-0.5-0.1-1-0.2-1.5h31.4C636.3,176.5,636.3,177,636.3,177.5z M558,174l0.7,1.5c0.3,0.6,0.5,1.3,0.5,2V217h35v-39.5
	c0-0.7,0.2-1.4,0.5-2l0.7-1.5H558z M592.3,177.5V215h-31v-37.5c0-0.5-0.1-1-0.2-1.5h31.4C592.3,176.5,592.3,177,592.3,177.5z
	 M514,174l0.7,1.5c0.3,0.6,0.5,1.3,0.5,2V217h35v-39.5c0-0.7,0.2-1.4,0.5-2l0.7-1.5H514z M548.3,177.5V215h-31v-37.5
	c0-0.5-0.1-1-0.2-1.5h31.4C548.3,176.5,548.3,177,548.3,177.5z M470,174l0.7,1.5c0.3,0.6,0.5,1.3,0.5,2V217h35v-39.5
	c0-0.7,0.2-1.4,0.5-2l0.7-1.5H470z M504.3,177.5V215h-31v-37.5c0-0.5-0.1-1-0.2-1.5h31.4C504.3,176.5,504.3,177,504.3,177.5z
	 M426,174l0.7,1.5c0.3,0.6,0.5,1.3,0.5,2V217h35v-39.5c0-0.7,0.2-1.4,0.5-2l0.7-1.5H426z M460.3,177.5V215h-31v-37.5
	c0-0.5-0.1-1-0.2-1.5h31.4C460.3,176.5,460.3,177,460.3,177.5z M382,174l0.7,1.5c0.3,0.6,0.5,1.3,0.5,2V217h35v-39.5
	c0-0.7,0.2-1.4,0.5-2l0.7-1.5H382z M416.3,177.5V215h-31v-37.5c0-0.5-0.1-1-0.2-1.5h31.4C416.3,176.5,416.3,177,416.3,177.5
	L416.3,177.5z M338,174l0.7,1.5c0.3,0.6,0.5,1.3,0.5,2V217h35v-39.5c0-0.7,0.2-1.4,0.5-2l0.7-1.5H338z M372.3,177.5V215h-31v-37.5
	c0-0.5-0.1-1-0.2-1.5h31.4C372.3,176.5,372.3,177,372.3,177.5L372.3,177.5z M294,174l0.7,1.5c0.3,0.6,0.5,1.3,0.5,2V217h35v-39.5
	c0-0.7,0.2-1.4,0.5-2l0.7-1.5H294z M328.3,177.5V215h-31v-37.5c0-0.5-0.1-1-0.2-1.5h31.4C328.3,176.5,328.3,177,328.3,177.5
	L328.3,177.5z M646,174l0.7,1.5c0.3,0.6,0.5,1.3,0.5,2V217h35v-39.5c0-0.7,0.2-1.4,0.5-2l0.7-1.5H646z M680.3,177.5V215h-31v-37.5
	c0-0.5-0.1-1-0.2-1.5h31.4C680.3,176.5,680.3,177,680.3,177.5z M602,174l0.7,1.5c0.3,0.6,0.5,1.3,0.5,2V217h35v-39.5
	c0-0.7,0.2-1.4,0.5-2l0.7-1.5H602z M636.3,177.5V215h-31v-37.5c0-0.5-0.1-1-0.2-1.5h31.4C636.3,176.5,636.3,177,636.3,177.5z
	 M558,174l0.7,1.5c0.3,0.6,0.5,1.3,0.5,2V217h35v-39.5c0-0.7,0.2-1.4,0.5-2l0.7-1.5H558z M592.3,177.5V215h-31v-37.5
	c0-0.5-0.1-1-0.2-1.5h31.4C592.3,176.5,592.3,177,592.3,177.5z M514,174l0.7,1.5c0.3,0.6,0.5,1.3,0.5,2V217h35v-39.5
	c0-0.7,0.2-1.4,0.5-2l0.7-1.5H514z M548.3,177.5V215h-31v-37.5c0-0.5-0.1-1-0.2-1.5h31.4C548.3,176.5,548.3,177,548.3,177.5z
	 M470,174l0.7,1.5c0.3,0.6,0.5,1.3,0.5,2V217h35v-39.5c0-0.7,0.2-1.4,0.5-2l0.7-1.5H470z M504.3,177.5V215h-31v-37.5
	c0-0.5-0.1-1-0.2-1.5h31.4C504.3,176.5,504.3,177,504.3,177.5z M426,174l0.7,1.5c0.3,0.6,0.5,1.3,0.5,2V217h35v-39.5
	c0-0.7,0.2-1.4,0.5-2l0.7-1.5H426z M460.3,177.5V215h-31v-37.5c0-0.5-0.1-1-0.2-1.5h31.4C460.3,176.5,460.3,177,460.3,177.5z
	 M382,174l0.7,1.5c0.3,0.6,0.5,1.3,0.5,2V217h35v-39.5c0-0.7,0.2-1.4,0.5-2l0.7-1.5H382z M416.3,177.5V215h-31v-37.5
	c0-0.5-0.1-1-0.2-1.5h31.4C416.3,176.5,416.3,177,416.3,177.5L416.3,177.5z M338,174l0.7,1.5c0.3,0.6,0.5,1.3,0.5,2V217h35v-39.5
	c0-0.7,0.2-1.4,0.5-2l0.7-1.5H338z M372.3,177.5V215h-31v-37.5c0-0.5-0.1-1-0.2-1.5h31.4C372.3,176.5,372.3,177,372.3,177.5
	L372.3,177.5z M294,174l0.7,1.5c0.3,0.6,0.5,1.3,0.5,2V217h35v-39.5c0-0.7,0.2-1.4,0.5-2l0.7-1.5H294z M328.3,177.5V215h-31v-37.5
	c0-0.5-0.1-1-0.2-1.5h31.4C328.3,176.5,328.3,177,328.3,177.5L328.3,177.5z M646,174l0.7,1.5c0.3,0.6,0.5,1.3,0.5,2V217h35v-39.5
	c0-0.7,0.2-1.4,0.5-2l0.7-1.5H646z M680.3,177.5V215h-31v-37.5c0-0.5-0.1-1-0.2-1.5h31.4C680.3,176.5,680.3,177,680.3,177.5z
	 M602,174l0.7,1.5c0.3,0.6,0.5,1.3,0.5,2V217h35v-39.5c0-0.7,0.2-1.4,0.5-2l0.7-1.5H602z M636.3,177.5V215h-31v-37.5
	c0-0.5-0.1-1-0.2-1.5h31.4C636.3,176.5,636.3,177,636.3,177.5z M558,174l0.7,1.5c0.3,0.6,0.5,1.3,0.5,2V217h35v-39.5
	c0-0.7,0.2-1.4,0.5-2l0.7-1.5H558z M592.3,177.5V215h-31v-37.5c0-0.5-0.1-1-0.2-1.5h31.4C592.3,176.5,592.3,177,592.3,177.5z
	 M514,174l0.7,1.5c0.3,0.6,0.5,1.3,0.5,2V217h35v-39.5c0-0.7,0.2-1.4,0.5-2l0.7-1.5H514z M548.3,177.5V215h-31v-37.5
	c0-0.5-0.1-1-0.2-1.5h31.4C548.3,176.5,548.3,177,548.3,177.5z M470,174l0.7,1.5c0.3,0.6,0.5,1.3,0.5,2V217h35v-39.5
	c0-0.7,0.2-1.4,0.5-2l0.7-1.5H470z M504.3,177.5V215h-31v-37.5c0-0.5-0.1-1-0.2-1.5h31.4C504.3,176.5,504.3,177,504.3,177.5z
	 M426,174l0.7,1.5c0.3,0.6,0.5,1.3,0.5,2V217h35v-39.5c0-0.7,0.2-1.4,0.5-2l0.7-1.5H426z M460.3,177.5V215h-31v-37.5
	c0-0.5-0.1-1-0.2-1.5h31.4C460.3,176.5,460.3,177,460.3,177.5z M382,174l0.7,1.5c0.3,0.6,0.5,1.3,0.5,2V217h35v-39.5
	c0-0.7,0.2-1.4,0.5-2l0.7-1.5H382z M416.3,177.5V215h-31v-37.5c0-0.5-0.1-1-0.2-1.5h31.4C416.3,176.5,416.3,177,416.3,177.5
	L416.3,177.5z M338,174l0.7,1.5c0.3,0.6,0.5,1.3,0.5,2V217h35v-39.5c0-0.7,0.2-1.4,0.5-2l0.7-1.5H338z M372.3,177.5V215h-31v-37.5
	c0-0.5-0.1-1-0.2-1.5h31.4C372.3,176.5,372.3,177,372.3,177.5L372.3,177.5z M294,174l0.7,1.5c0.3,0.6,0.5,1.3,0.5,2V217h35v-39.5
	c0-0.7,0.2-1.4,0.5-2l0.7-1.5H294z M328.3,177.5V215h-31v-37.5c0-0.5-0.1-1-0.2-1.5h31.4C328.3,176.5,328.3,177,328.3,177.5
	L328.3,177.5z M646,174l0.7,1.5c0.3,0.6,0.5,1.3,0.5,2V217h35v-39.5c0-0.7,0.2-1.4,0.5-2l0.7-1.5H646z M680.3,177.5V215h-31v-37.5
	c0-0.5-0.1-1-0.2-1.5h31.4C680.3,176.5,680.3,177,680.3,177.5z M602,174l0.7,1.5c0.3,0.6,0.5,1.3,0.5,2V217h35v-39.5
	c0-0.7,0.2-1.4,0.5-2l0.7-1.5H602z M636.3,177.5V215h-31v-37.5c0-0.5-0.1-1-0.2-1.5h31.4C636.3,176.5,636.3,177,636.3,177.5z
	 M558,174l0.7,1.5c0.3,0.6,0.5,1.3,0.5,2V217h35v-39.5c0-0.7,0.2-1.4,0.5-2l0.7-1.5H558z M592.3,177.5V215h-31v-37.5
	c0-0.5-0.1-1-0.2-1.5h31.4C592.3,176.5,592.3,177,592.3,177.5z M514,174l0.7,1.5c0.3,0.6,0.5,1.3,0.5,2V217h35v-39.5
	c0-0.7,0.2-1.4,0.5-2l0.7-1.5H514z M548.3,177.5V215h-31v-37.5c0-0.5-0.1-1-0.2-1.5h31.4C548.3,176.5,548.3,177,548.3,177.5z
	 M470,174l0.7,1.5c0.3,0.6,0.5,1.3,0.5,2V217h35v-39.5c0-0.7,0.2-1.4,0.5-2l0.7-1.5H470z M504.3,177.5V215h-31v-37.5
	c0-0.5-0.1-1-0.2-1.5h31.4C504.3,176.5,504.3,177,504.3,177.5z M426,174l0.7,1.5c0.3,0.6,0.5,1.3,0.5,2V217h35v-39.5
	c0-0.7,0.2-1.4,0.5-2l0.7-1.5H426z M460.3,177.5V215h-31v-37.5c0-0.5-0.1-1-0.2-1.5h31.4C460.3,176.5,460.3,177,460.3,177.5z
	 M382,174l0.7,1.5c0.3,0.6,0.5,1.3,0.5,2V217h35v-39.5c0-0.7,0.2-1.4,0.5-2l0.7-1.5H382z M416.3,177.5V215h-31v-37.5
	c0-0.5-0.1-1-0.2-1.5h31.4C416.3,176.5,416.3,177,416.3,177.5L416.3,177.5z M338,174l0.7,1.5c0.3,0.6,0.5,1.3,0.5,2V217h35v-39.5
	c0-0.7,0.2-1.4,0.5-2l0.7-1.5H338z M372.3,177.5V215h-31v-37.5c0-0.5-0.1-1-0.2-1.5h31.4C372.3,176.5,372.3,177,372.3,177.5
	L372.3,177.5z M294,174l0.7,1.5c0.3,0.6,0.5,1.3,0.5,2V217h35v-39.5c0-0.7,0.2-1.4,0.5-2l0.7-1.5H294z M328.3,177.5V215h-31v-37.5
	c0-0.5-0.1-1-0.2-1.5h31.4C328.3,176.5,328.3,177,328.3,177.5L328.3,177.5z M646,174l0.7,1.5c0.3,0.6,0.5,1.3,0.5,2V217h35v-39.5
	c0-0.7,0.2-1.4,0.5-2l0.7-1.5H646z M680.3,177.5V215h-31v-37.5c0-0.5-0.1-1-0.2-1.5h31.4C680.3,176.5,680.3,177,680.3,177.5z
	 M602.8,175.5c0.3,0.6,0.5,1.3,0.5,2V217h35v-39.5c0-0.7,0.2-1.4,0.5-2l0.7-1.5H602L602.8,175.5z M636.5,176c-0.1,0.5-0.2,1-0.2,1.5
	V215h-31v-37.5c0-0.5-0.1-1-0.2-1.5H636.5z M558.8,175.5c0.3,0.6,0.5,1.3,0.5,2V217h35v-39.5c0-0.7,0.2-1.4,0.5-2l0.7-1.5H558
	L558.8,175.5z M592.5,176c-0.1,0.5-0.2,1-0.2,1.5V215h-31v-37.5c0-0.5-0.1-1-0.2-1.5H592.5z M514.8,175.5c0.3,0.6,0.5,1.3,0.5,2V217
	h35v-39.5c0-0.7,0.2-1.4,0.5-2l0.7-1.5H514L514.8,175.5z M548.5,176c-0.1,0.5-0.2,1-0.2,1.5V215h-31v-37.5c0-0.5-0.1-1-0.2-1.5
	H548.5z M470.8,175.5c0.3,0.6,0.5,1.3,0.5,2V217h35v-39.5c0-0.7,0.2-1.4,0.5-2l0.7-1.5H470L470.8,175.5z M504.5,176
	c-0.1,0.5-0.2,1-0.2,1.5V215h-31v-37.5c0-0.5-0.1-1-0.2-1.5H504.5z M426.8,175.5c0.3,0.6,0.5,1.3,0.5,2V217h35v-39.5
	c0-0.7,0.2-1.4,0.5-2l0.7-1.5H426L426.8,175.5z M460.5,176c-0.1,0.5-0.2,1-0.2,1.5V215h-31v-37.5c0-0.5-0.1-1-0.2-1.5H460.5z
	 M382.8,175.5c0.3,0.6,0.5,1.3,0.5,2V217h35v-39.5c0-0.7,0.2-1.4,0.5-2l0.7-1.5H382L382.8,175.5z M416.5,176c-0.1,0.5-0.2,1-0.2,1.5
	V215h-31v-37.5c0-0.5-0.1-1-0.2-1.5H416.5z M338.8,175.5c0.3,0.6,0.5,1.3,0.5,2V217h35v-39.5c0-0.7,0.2-1.4,0.5-2l0.7-1.5H338
	L338.8,175.5z M372.5,176c-0.1,0.5-0.2,1-0.2,1.5V215h-31v-37.5c0-0.5-0.1-1-0.2-1.5H372.5z M294.8,175.5c0.3,0.6,0.5,1.3,0.5,2V217
	h35v-39.5c0-0.7,0.2-1.4,0.5-2l0.7-1.5H294L294.8,175.5z M328.5,176c-0.1,0.5-0.2,1-0.2,1.5V215h-31v-37.5c0-0.5-0.1-1-0.2-1.5
	H328.5z M646.8,175.5c0.3,0.6,0.5,1.3,0.5,2V217h35v-39.5c0-0.7,0.2-1.4,0.5-2l0.7-1.5H646L646.8,175.5z M680.5,176
	c-0.1,0.5-0.2,1-0.2,1.5V215h-31v-37.5c0-0.5-0.1-1-0.2-1.5H680.5z M602.8,175.5c0.3,0.6,0.5,1.3,0.5,2V217h35v-39.5
	c0-0.7,0.2-1.4,0.5-2l0.7-1.5H602L602.8,175.5z M636.5,176c-0.1,0.5-0.2,1-0.2,1.5V215h-31v-37.5c0-0.5-0.1-1-0.2-1.5H636.5z
	 M558.8,175.5c0.3,0.6,0.5,1.3,0.5,2V217h35v-39.5c0-0.7,0.2-1.4,0.5-2l0.7-1.5H558L558.8,175.5z M592.5,176c-0.1,0.5-0.2,1-0.2,1.5
	V215h-31v-37.5c0-0.5-0.1-1-0.2-1.5H592.5z M514.8,175.5c0.3,0.6,0.5,1.3,0.5,2V217h35v-39.5c0-0.7,0.2-1.4,0.5-2l0.7-1.5H514
	L514.8,175.5z M548.5,176c-0.1,0.5-0.2,1-0.2,1.5V215h-31v-37.5c0-0.5-0.1-1-0.2-1.5H548.5z M470.8,175.5c0.3,0.6,0.5,1.3,0.5,2V217
	h35v-39.5c0-0.7,0.2-1.4,0.5-2l0.7-1.5H470L470.8,175.5z M504.5,176c-0.1,0.5-0.2,1-0.2,1.5V215h-31v-37.5c0-0.5-0.1-1-0.2-1.5
	H504.5z M426.8,175.5c0.3,0.6,0.5,1.3,0.5,2V217h35v-39.5c0-0.7,0.2-1.4,0.5-2l0.7-1.5H426L426.8,175.5z M460.5,176
	c-0.1,0.5-0.2,1-0.2,1.5V215h-31v-37.5c0-0.5-0.1-1-0.2-1.5H460.5z M382.8,175.5c0.3,0.6,0.5,1.3,0.5,2V217h35v-39.5
	c0-0.7,0.2-1.4,0.5-2l0.7-1.5H382L382.8,175.5z M416.5,176c-0.1,0.5-0.2,1-0.2,1.5V215h-31v-37.5c0-0.5-0.1-1-0.2-1.5H416.5z
	 M338.8,175.5c0.3,0.6,0.5,1.3,0.5,2V217h35v-39.5c0-0.7,0.2-1.4,0.5-2l0.7-1.5H338L338.8,175.5z M372.5,176c-0.1,0.5-0.2,1-0.2,1.5
	V215h-31v-37.5c0-0.5-0.1-1-0.2-1.5H372.5z M294.8,175.5c0.3,0.6,0.5,1.3,0.5,2V217h35v-39.5c0-0.7,0.2-1.4,0.5-2l0.7-1.5H294
	L294.8,175.5z M328.5,176c-0.1,0.5-0.2,1-0.2,1.5V215h-31v-37.5c0-0.5-0.1-1-0.2-1.5H328.5z M722.3,223h-11.9c-1.4-4.7-5.7-8-10.6-8
	h-6.5v-37.5c0-0.8-0.2-1.6-0.5-2.4c2.9-1.7,3.8-5.3,2.1-8.2c-1.1-1.8-3-3-5.2-3h-402c-3.3,0-6,2.7-6,6c0,2.1,1.1,4.1,3,5.2
	c-0.3,0.7-0.5,1.5-0.5,2.4V215h-6.5c-4.9,0-9.2,3.3-10.6,8h-12.9c-5,0-9,4-9,9v528c0,5,4,9,9,9h468c5,0,9-4,9-9V232
	C731.3,227,727.2,223,722.3,223z M729.3,760c0,2.9-1.8,5.5-4.6,6.6c-0.8,0.3-1.6,0.4-2.4,0.4h-468c-0.8,0-1.7-0.1-2.4-0.4
	c-2.7-1-4.6-3.6-4.6-6.6V232c0-3.9,3.1-7,7-7h14.5l0.2-0.8c0.9-4.2,4.5-7.2,8.8-7.2h8.5v-39.5c0-0.8,0.2-1.6,0.6-2.3l0.6-1l-1.1-0.4
	c-2.1-0.8-3.1-3-2.4-5.1c0.6-1.6,2.1-2.6,3.8-2.6h402c2.2,0,4,1.8,4,4c0,1.7-1,3.2-2.6,3.8l-1.1,0.4l0.6,1c0.4,0.7,0.6,1.5,0.6,2.3
	V217h8.5c4.3,0,8,3,8.8,7.2l0.2,0.8h13.5c3.9,0,7,3.1,7,7L729.3,760z M294,174l0.7,1.5c0.3,0.6,0.5,1.3,0.5,2V217h35v-39.5
	c0-0.7,0.2-1.4,0.5-2l0.7-1.5H294z M328.3,177.5V215h-31v-37.5c0-0.5-0.1-1-0.2-1.5h31.4C328.3,176.5,328.3,177,328.3,177.5
	L328.3,177.5z M338,174l0.7,1.5c0.3,0.6,0.5,1.3,0.5,2V217h35v-39.5c0-0.7,0.2-1.4,0.5-2l0.7-1.5H338z M372.3,177.5V215h-31v-37.5
	c0-0.5-0.1-1-0.2-1.5h31.4C372.3,176.5,372.3,177,372.3,177.5L372.3,177.5z M382,174l0.7,1.5c0.3,0.6,0.5,1.3,0.5,2V217h35v-39.5
	c0-0.7,0.2-1.4,0.5-2l0.7-1.5H382z M416.3,177.5V215h-31v-37.5c0-0.5-0.1-1-0.2-1.5h31.4C416.3,176.5,416.3,177,416.3,177.5
	L416.3,177.5z M426,174l0.7,1.5c0.3,0.6,0.5,1.3,0.5,2V217h35v-39.5c0-0.7,0.2-1.4,0.5-2l0.7-1.5H426z M460.3,177.5V215h-31v-37.5
	c0-0.5-0.1-1-0.2-1.5h31.4C460.3,176.5,460.3,177,460.3,177.5z M470,174l0.7,1.5c0.3,0.6,0.5,1.3,0.5,2V217h35v-39.5
	c0-0.7,0.2-1.4,0.5-2l0.7-1.5H470z M504.3,177.5V215h-31v-37.5c0-0.5-0.1-1-0.2-1.5h31.4C504.3,176.5,504.3,177,504.3,177.5z
	 M514,174l0.7,1.5c0.3,0.6,0.5,1.3,0.5,2V217h35v-39.5c0-0.7,0.2-1.4,0.5-2l0.7-1.5H514z M548.3,177.5V215h-31v-37.5
	c0-0.5-0.1-1-0.2-1.5h31.4C548.3,176.5,548.3,177,548.3,177.5z M558,174l0.7,1.5c0.3,0.6,0.5,1.3,0.5,2V217h35v-39.5
	c0-0.7,0.2-1.4,0.5-2l0.7-1.5H558z M592.3,177.5V215h-31v-37.5c0-0.5-0.1-1-0.2-1.5h31.4C592.3,176.5,592.3,177,592.3,177.5z
	 M602,174l0.7,1.5c0.3,0.6,0.5,1.3,0.5,2V217h35v-39.5c0-0.7,0.2-1.4,0.5-2l0.7-1.5H602z M636.3,177.5V215h-31v-37.5
	c0-0.5-0.1-1-0.2-1.5h31.4C636.3,176.5,636.3,177,636.3,177.5z M646,174l0.7,1.5c0.3,0.6,0.5,1.3,0.5,2V217h35v-39.5
	c0-0.7,0.2-1.4,0.5-2l0.7-1.5H646z M680.3,177.5V215h-31v-37.5c0-0.5-0.1-1-0.2-1.5h31.4C680.3,176.5,680.3,177,680.3,177.5z
	 M294,174l0.7,1.5c0.3,0.6,0.5,1.3,0.5,2V217h35v-39.5c0-0.7,0.2-1.4,0.5-2l0.7-1.5H294z M328.3,177.5V215h-31v-37.5
	c0-0.5-0.1-1-0.2-1.5h31.4C328.3,176.5,328.3,177,328.3,177.5L328.3,177.5z M338,174l0.7,1.5c0.3,0.6,0.5,1.3,0.5,2V217h35v-39.5
	c0-0.7,0.2-1.4,0.5-2l0.7-1.5H338z M372.3,177.5V215h-31v-37.5c0-0.5-0.1-1-0.2-1.5h31.4C372.3,176.5,372.3,177,372.3,177.5
	L372.3,177.5z M382,174l0.7,1.5c0.3,0.6,0.5,1.3,0.5,2V217h35v-39.5c0-0.7,0.2-1.4,0.5-2l0.7-1.5H382z M416.3,177.5V215h-31v-37.5
	c0-0.5-0.1-1-0.2-1.5h31.4C416.3,176.5,416.3,177,416.3,177.5L416.3,177.5z M426,174l0.7,1.5c0.3,0.6,0.5,1.3,0.5,2V217h35v-39.5
	c0-0.7,0.2-1.4,0.5-2l0.7-1.5H426z M460.3,177.5V215h-31v-37.5c0-0.5-0.1-1-0.2-1.5h31.4C460.3,176.5,460.3,177,460.3,177.5z
	 M470,174l0.7,1.5c0.3,0.6,0.5,1.3,0.5,2V217h35v-39.5c0-0.7,0.2-1.4,0.5-2l0.7-1.5H470z M504.3,177.5V215h-31v-37.5
	c0-0.5-0.1-1-0.2-1.5h31.4C504.3,176.5,504.3,177,504.3,177.5z M514,174l0.7,1.5c0.3,0.6,0.5,1.3,0.5,2V217h35v-39.5
	c0-0.7,0.2-1.4,0.5-2l0.7-1.5H514z M548.3,177.5V215h-31v-37.5c0-0.5-0.1-1-0.2-1.5h31.4C548.3,176.5,548.3,177,548.3,177.5z
	 M558,174l0.7,1.5c0.3,0.6,0.5,1.3,0.5,2V217h35v-39.5c0-0.7,0.2-1.4,0.5-2l0.7-1.5H558z M592.3,177.5V215h-31v-37.5
	c0-0.5-0.1-1-0.2-1.5h31.4C592.3,176.5,592.3,177,592.3,177.5z M602,174l0.7,1.5c0.3,0.6,0.5,1.3,0.5,2V217h35v-39.5
	c0-0.7,0.2-1.4,0.5-2l0.7-1.5H602z M636.3,177.5V215h-31v-37.5c0-0.5-0.1-1-0.2-1.5h31.4C636.3,176.5,636.3,177,636.3,177.5z
	 M646,174l0.7,1.5c0.3,0.6,0.5,1.3,0.5,2V217h35v-39.5c0-0.7,0.2-1.4,0.5-2l0.7-1.5H646z M680.3,177.5V215h-31v-37.5
	c0-0.5-0.1-1-0.2-1.5h31.4C680.3,176.5,680.3,177,680.3,177.5z M294,174l0.7,1.5c0.3,0.6,0.5,1.3,0.5,2V217h35v-39.5
	c0-0.7,0.2-1.4,0.5-2l0.7-1.5H294z M328.3,177.5V215h-31v-37.5c0-0.5-0.1-1-0.2-1.5h31.4C328.3,176.5,328.3,177,328.3,177.5
	L328.3,177.5z M338,174l0.7,1.5c0.3,0.6,0.5,1.3,0.5,2V217h35v-39.5c0-0.7,0.2-1.4,0.5-2l0.7-1.5H338z M372.3,177.5V215h-31v-37.5
	c0-0.5-0.1-1-0.2-1.5h31.4C372.3,176.5,372.3,177,372.3,177.5L372.3,177.5z M382,174l0.7,1.5c0.3,0.6,0.5,1.3,0.5,2V217h35v-39.5
	c0-0.7,0.2-1.4,0.5-2l0.7-1.5H382z M416.3,177.5V215h-31v-37.5c0-0.5-0.1-1-0.2-1.5h31.4C416.3,176.5,416.3,177,416.3,177.5
	L416.3,177.5z M426,174l0.7,1.5c0.3,0.6,0.5,1.3,0.5,2V217h35v-39.5c0-0.7,0.2-1.4,0.5-2l0.7-1.5H426z M460.3,177.5V215h-31v-37.5
	c0-0.5-0.1-1-0.2-1.5h31.4C460.3,176.5,460.3,177,460.3,177.5z M470,174l0.7,1.5c0.3,0.6,0.5,1.3,0.5,2V217h35v-39.5
	c0-0.7,0.2-1.4,0.5-2l0.7-1.5H470z M504.3,177.5V215h-31v-37.5c0-0.5-0.1-1-0.2-1.5h31.4C504.3,176.5,504.3,177,504.3,177.5z
	 M514,174l0.7,1.5c0.3,0.6,0.5,1.3,0.5,2V217h35v-39.5c0-0.7,0.2-1.4,0.5-2l0.7-1.5H514z M548.3,177.5V215h-31v-37.5
	c0-0.5-0.1-1-0.2-1.5h31.4C548.3,176.5,548.3,177,548.3,177.5z M558,174l0.7,1.5c0.3,0.6,0.5,1.3,0.5,2V217h35v-39.5
	c0-0.7,0.2-1.4,0.5-2l0.7-1.5H558z M592.3,177.5V215h-31v-37.5c0-0.5-0.1-1-0.2-1.5h31.4C592.3,176.5,592.3,177,592.3,177.5z
	 M602,174l0.7,1.5c0.3,0.6,0.5,1.3,0.5,2V217h35v-39.5c0-0.7,0.2-1.4,0.5-2l0.7-1.5H602z M636.3,177.5V215h-31v-37.5
	c0-0.5-0.1-1-0.2-1.5h31.4C636.3,176.5,636.3,177,636.3,177.5z M646,174l0.7,1.5c0.3,0.6,0.5,1.3,0.5,2V217h35v-39.5
	c0-0.7,0.2-1.4,0.5-2l0.7-1.5H646z M680.3,177.5V215h-31v-37.5c0-0.5-0.1-1-0.2-1.5h31.4C680.3,176.5,680.3,177,680.3,177.5z
	 M294,174l0.7,1.5c0.3,0.6,0.5,1.3,0.5,2V217h35v-39.5c0-0.7,0.2-1.4,0.5-2l0.7-1.5H294z M328.3,177.5V215h-31v-37.5
	c0-0.5-0.1-1-0.2-1.5h31.4C328.3,176.5,328.3,177,328.3,177.5L328.3,177.5z M338,174l0.7,1.5c0.3,0.6,0.5,1.3,0.5,2V217h35v-39.5
	c0-0.7,0.2-1.4,0.5-2l0.7-1.5H338z M372.3,177.5V215h-31v-37.5c0-0.5-0.1-1-0.2-1.5h31.4C372.3,176.5,372.3,177,372.3,177.5
	L372.3,177.5z M382,174l0.7,1.5c0.3,0.6,0.5,1.3,0.5,2V217h35v-39.5c0-0.7,0.2-1.4,0.5-2l0.7-1.5H382z M416.3,177.5V215h-31v-37.5
	c0-0.5-0.1-1-0.2-1.5h31.4C416.3,176.5,416.3,177,416.3,177.5L416.3,177.5z M426,174l0.7,1.5c0.3,0.6,0.5,1.3,0.5,2V217h35v-39.5
	c0-0.7,0.2-1.4,0.5-2l0.7-1.5H426z M460.3,177.5V215h-31v-37.5c0-0.5-0.1-1-0.2-1.5h31.4C460.3,176.5,460.3,177,460.3,177.5z
	 M470,174l0.7,1.5c0.3,0.6,0.5,1.3,0.5,2V217h35v-39.5c0-0.7,0.2-1.4,0.5-2l0.7-1.5H470z M504.3,177.5V215h-31v-37.5
	c0-0.5-0.1-1-0.2-1.5h31.4C504.3,176.5,504.3,177,504.3,177.5z M514,174l0.7,1.5c0.3,0.6,0.5,1.3,0.5,2V217h35v-39.5
	c0-0.7,0.2-1.4,0.5-2l0.7-1.5H514z M548.3,177.5V215h-31v-37.5c0-0.5-0.1-1-0.2-1.5h31.4C548.3,176.5,548.3,177,548.3,177.5z
	 M558,174l0.7,1.5c0.3,0.6,0.5,1.3,0.5,2V217h35v-39.5c0-0.7,0.2-1.4,0.5-2l0.7-1.5H558z M592.3,177.5V215h-31v-37.5
	c0-0.5-0.1-1-0.2-1.5h31.4C592.3,176.5,592.3,177,592.3,177.5z M602,174l0.7,1.5c0.3,0.6,0.5,1.3,0.5,2V217h35v-39.5
	c0-0.7,0.2-1.4,0.5-2l0.7-1.5H602z M636.3,177.5V215h-31v-37.5c0-0.5-0.1-1-0.2-1.5h31.4C636.3,176.5,636.3,177,636.3,177.5z
	 M646,174l0.7,1.5c0.3,0.6,0.5,1.3,0.5,2V217h35v-39.5c0-0.7,0.2-1.4,0.5-2l0.7-1.5H646z M680.3,177.5V215h-31v-37.5
	c0-0.5-0.1-1-0.2-1.5h31.4C680.3,176.5,680.3,177,680.3,177.5z"/>
<path class="st5" d="M412.9,349h-73.7c-3.2,0-5.9-2.6-5.9-5.9v-39.3c0-3.2,2.6-5.9,5.9-5.9h73.7c3.2,0,5.9,2.6,5.9,5.9v39.3
	C418.8,346.4,416.2,349,412.9,349z"/>
<path class="st5" d="M525.1,349h-73.7c-3.2,0-5.9-2.6-5.9-5.9v-39.3c0-3.2,2.6-5.9,5.9-5.9h73.7c3.2,0,5.9,2.6,5.9,5.9v39.3
	C531,346.4,528.4,349,525.1,349z"/>
<path class="st5" d="M637.4,349h-73.7c-3.2,0-5.9-2.6-5.9-5.9v-39.3c0-3.2,2.6-5.9,5.9-5.9h73.7c3.2,0,5.9,2.6,5.9,5.9v39.3
	C643.2,346.4,640.6,349,637.4,349z"/>
<path class="st5" d="M412.9,480h-73.7c-3.2,0-5.9-2.6-5.9-5.9v-39.3c0-3.2,2.6-5.9,5.9-5.9h73.7c3.2,0,5.9,2.6,5.9,5.9v39.3
	C418.8,477.4,416.2,480,412.9,480z"/>
<path class="st5" d="M525.1,480h-73.7c-3.2,0-5.9-2.6-5.9-5.9v-39.3c0-3.2,2.6-5.9,5.9-5.9h73.7c3.2,0,5.9,2.6,5.9,5.9v39.3
	C531,477.4,528.4,480,525.1,480z"/>
<path class="st5" d="M637.4,480h-73.7c-3.2,0-5.9-2.6-5.9-5.9v-39.3c0-3.2,2.6-5.9,5.9-5.9h73.7c3.2,0,5.9,2.6,5.9,5.9v39.3
	C643.2,477.4,640.6,480,637.4,480z"/>
<path class="st5" d="M412.9,611h-73.7c-3.2,0-5.9-2.6-5.9-5.9v-39.3c0-3.2,2.6-5.9,5.9-5.9h73.7c3.2,0,5.9,2.6,5.9,5.9v39.3
	C418.8,608.4,416.2,611,412.9,611z"/>
<path class="st5" d="M525.1,611h-73.7c-3.2,0-5.9-2.6-5.9-5.9v-39.3c0-3.2,2.6-5.9,5.9-5.9h73.7c3.2,0,5.9,2.6,5.9,5.9v39.3
	C531,608.4,528.4,611,525.1,611z"/>
<path class="st5" d="M637.4,611h-73.7c-3.2,0-5.9-2.6-5.9-5.9v-39.3c0-3.2,2.6-5.9,5.9-5.9h73.7c3.2,0,5.9,2.6,5.9,5.9v39.3
	C643.2,608.4,640.6,611,637.4,611z"/>
<path class="st2" d="M401,354h-85.4c-4.3,0-7.8-3.5-7.8-7.8v-45.5c0-4.3,3.5-7.8,7.8-7.8H401c4.3,0,7.8,3.5,7.8,7.8v45.5
	C408.8,350.6,405.3,354,401,354z M315.6,295c-3.2,0-5.8,2.6-5.8,5.8v45.5c0,3.2,2.6,5.8,5.8,5.8H401c3.2,0,5.8-2.6,5.8-5.8v-45.5
	c0-3.2-2.6-5.8-5.8-5.8H315.6z"/>
<path class="st2" d="M531,354h-85.4c-4.3,0-7.8-3.5-7.8-7.8v-45.5c0-4.3,3.5-7.8,7.8-7.8H531c4.3,0,7.8,3.5,7.8,7.8v45.5
	C538.8,350.6,535.3,354,531,354z M445.6,295c-3.2,0-5.8,2.6-5.8,5.8v45.5c0,3.2,2.6,5.8,5.8,5.8H531c3.2,0,5.8-2.6,5.8-5.8v-45.5
	c0-3.2-2.6-5.8-5.8-5.8H445.6z"/>
<path class="st2" d="M661,354h-85.4c-4.3,0-7.8-3.5-7.8-7.8v-45.5c0-4.3,3.5-7.8,7.8-7.8H661c4.3,0,7.8,3.5,7.8,7.8v45.5
	C668.8,350.6,665.3,354,661,354z M575.6,295c-3.2,0-5.8,2.6-5.8,5.8v45.5c0,3.2,2.6,5.8,5.8,5.8H661c3.2,0,5.8-2.6,5.8-5.8v-45.5
	c0-3.2-2.6-5.8-5.8-5.8H575.6z"/>
<path class="st2" d="M401,485h-85.4c-4.3,0-7.8-3.5-7.8-7.8v-45.5c0-4.3,3.5-7.8,7.8-7.8H401c4.3,0,7.8,3.5,7.8,7.8v45.5
	C408.8,481.6,405.3,485,401,485z M315.6,426c-3.2,0-5.8,2.6-5.8,5.8v45.5c0,3.2,2.6,5.8,5.8,5.8H401c3.2,0,5.8-2.6,5.8-5.8v-45.5
	c0-3.2-2.6-5.8-5.8-5.8H315.6z"/>
<path class="st2" d="M531,485h-85.4c-4.3,0-7.8-3.5-7.8-7.8v-45.5c0-4.3,3.5-7.8,7.8-7.8H531c4.3,0,7.8,3.5,7.8,7.8v45.5
	C538.8,481.6,535.3,485,531,485z M445.6,426c-3.2,0-5.8,2.6-5.8,5.8v45.5c0,3.2,2.6,5.8,5.8,5.8H531c3.2,0,5.8-2.6,5.8-5.8v-45.5
	c0-3.2-2.6-5.8-5.8-5.8H445.6z"/>
<path class="st2" d="M661,485h-85.4c-4.3,0-7.8-3.5-7.8-7.8v-45.5c0-4.3,3.5-7.8,7.8-7.8H661c4.3,0,7.8,3.5,7.8,7.8v45.5
	C668.8,481.6,665.3,485,661,485z M575.6,426c-3.2,0-5.8,2.6-5.8,5.8v45.5c0,3.2,2.6,5.8,5.8,5.8H661c3.2,0,5.8-2.6,5.8-5.8v-45.5
	c0-3.2-2.6-5.8-5.8-5.8H575.6z"/>
<path class="st2" d="M401,616h-85.4c-4.3,0-7.8-3.5-7.8-7.8v-45.5c0-4.3,3.5-7.8,7.8-7.8H401c4.3,0,7.8,3.5,7.8,7.8v45.5
	C408.8,612.6,405.3,616,401,616z M315.6,557c-3.2,0-5.8,2.6-5.8,5.8v45.5c0,3.2,2.6,5.8,5.8,5.8H401c3.2,0,5.8-2.6,5.8-5.8v-45.5
	c0-3.2-2.6-5.8-5.8-5.8H315.6z"/>
<path class="st2" d="M531,616h-85.4c-4.3,0-7.8-3.5-7.8-7.8v-45.5c0-4.3,3.5-7.8,7.8-7.8H531c4.3,0,7.8,3.5,7.8,7.8v45.5
	C538.8,612.6,535.3,616,531,616z M445.6,557c-3.2,0-5.8,2.6-5.8,5.8v45.5c0,3.2,2.6,5.8,5.8,5.8H531c3.2,0,5.8-2.6,5.8-5.8v-45.5
	c0-3.2-2.6-5.8-5.8-5.8H445.6z"/>
<path class="st2" d="M661,616h-85.4c-4.3,0-7.8-3.5-7.8-7.8v-45.5c0-4.3,3.5-7.8,7.8-7.8H661c4.3,0,7.8,3.5,7.8,7.8v45.5
	C668.8,612.6,665.3,616,661,616z M575.6,557c-3.2,0-5.8,2.6-5.8,5.8v45.5c0,3.2,2.6,5.8,5.8,5.8H661c3.2,0,5.8-2.6,5.8-5.8v-45.5
	c0-3.2-2.6-5.8-5.8-5.8H575.6z"/>
<path class="st2" d="M1009,770.5H1c-0.6,0-1-0.4-1-1s0.4-1,1-1h1008c0.6,0,1,0.4,1,1S1009.6,770.5,1009,770.5z"/>
<path class="st2" d="M538.8,673.7c0.1-4.8-3.7-8.7-8.5-8.7h-42v103.5h50.5V673.7z"/>
<path class="st2" d="M489.3,767.5h-52.5V674c0-5.2,4.3-9.5,9.5-9.5h43V767.5z M438.8,765.5h48.5v-99h-41c-4.1,0-7.5,3.4-7.5,7.5
	V765.5z"/>
<circle class="st2" cx="443.3" cy="720" r="3"/>
<circle class="st6" cx="729.3" cy="174.8" r="106.5"/>
<g>
	<polygon class="st7" points="714.5,161.1 785.5,161.1 785.5,125.1 673,125.1 673,161.1 	"/>
	<polygon class="st7" points="715.1,224.4 785.5,224.4 785.5,188.4 715.1,188.4 673,188.4 673,224.4 	"/>
</g>
</svg>
